Coordinates
version=1
nRows=36
nColumns=30
inDegrees=yes

Units are S.I. units (second, meters, Newtons, ...)
Angles are in degrees.

endheader
time	floatyaw	floatroll	floatpitch	floatx	floaty	floatz	pro_sup_l	deviation_l	flexion_l	cmc_flexion_l	cmc_abduction_l	mp_flexion_l	ip_flexion_l	2mcp_flexion_l	2mcp_abduction_l	2pm_flexion_l	2md_flexion_l	3mcp_flexion_l	3mcp_abduction_l	3pm_flexion_l	3md_flexion_l	4mcp_flexion_l	4mcp_abduction_l	4pm_flexion_l	4md_flexion_l	5mcp_flexion_l	5mcp_abduction_l	5pm_flexion_l	5md_flexion_l
-0.995000	-1.089067	-4.156866	93.821839	-0.009421	-0.265396	-0.002546	89.268834	0.338453	-2.113149	24.289910	3.106717	-17.900677	-28.754345	19.921258	5.832275	30.787868	20.810333	9.846733	4.458057	33.678504	21.832399	-1.111324	-3.970850	50.636980	33.019164	-20.823016	-7.738282	60.768872	49.371429
-0.985000	-1.089067	-4.156866	93.821839	-0.009412	-0.265390	-0.002573	89.246489	0.339018	-2.109385	24.249579	3.135362	-17.868498	-28.717921	19.927562	5.825470	30.784910	20.813041	9.831670	4.449338	33.707199	21.842560	-1.106984	-3.967439	50.653351	33.014774	-20.827594	-7.720877	60.760166	49.414196
-0.975000	-1.089067	-4.156866	93.821839	-0.009397	-0.265386	-0.002602	89.231147	0.340685	-2.115311	24.235579	3.170771	-17.850690	-28.712556	19.949841	5.824329	30.784923	20.803914	9.827670	4.437616	33.738583	21.842165	-1.083172	-3.961221	50.671122	33.007838	-20.819423	-7.708422	60.766955	49.461327
-0.965000	-1.089067	-4.156866	93.821839	-0.009379	-0.265382	-0.002630	89.227788	0.344336	-2.128394	24.246609	3.202629	-17.845577	-28.725514	19.982893	5.830046	30.786650	20.785144	9.831257	4.424683	33.770485	21.833142	-1.042271	-3.952279	50.685842	32.998969	-20.804197	-7.704983	60.785870	49.505701
-0.955000	-1.089067	-4.156866	93.821839	-0.009362	-0.265373	-0.002657	89.235565	0.349960	-2.143228	24.274807	3.224253	-17.849346	-28.740201	20.018580	5.841199	30.788665	20.761415	9.837364	4.411879	33.799812	21.819521	-0.993622	-3.940651	50.696353	32.989694	-20.793797	-7.712754	60.813588	49.542236
-0.945000	-1.089067	-4.156866	93.821839	-0.009348	-0.265357	-0.002682	89.249396	0.356772	-2.154171	24.310408	3.234583	-17.858479	-28.746014	20.048680	5.854617	30.791056	20.737423	9.841919	4.399766	33.823873	21.805362	-0.949224	-3.926722	50.704615	32.982475	-20.798784	-7.730694	60.847164	49.569428
-0.935000	-1.089067	-4.156866	93.821839	-0.009338	-0.265332	-0.002703	89.264043	0.363768	-2.157769	24.345832	3.235917	-17.870959	-28.742777	20.067205	5.867164	30.795663	20.715710	9.843275	4.388542	33.841323	21.792727	-0.918542	-3.911699	50.713774	32.979454	-20.821856	-7.754587	60.883035	49.588239
-0.925000	-1.089067	-4.156866	93.821839	-0.009331	-0.265302	-0.002721	89.277678	0.370243	-2.153903	24.377424	3.229760	-17.885910	-28.738314	20.071622	5.877308	30.804458	20.695873	9.842201	4.378859	33.852013	21.780691	-0.905235	-3.897580	50.725774	32.980887	-20.856188	-7.778829	60.915471	49.599638
-0.915000	-1.089067	-4.156866	93.821839	-0.009330	-0.265272	-0.002730	89.292461	0.375823	-2.145341	24.404762	3.214439	-17.902467	-28.741929	20.062987	5.885548	30.817206	20.675396	9.840998	4.372361	33.855897	21.765884	-0.907248	-3.886475	50.739894	32.984648	-20.889480	-7.798991	60.935870	49.603193
-0.905000	-1.089067	-4.156866	93.821839	-0.009335	-0.265247	-0.002728	89.312046	0.380121	-2.136169	24.428658	3.186391	-17.919061	-28.758085	20.045197	5.893626	30.830311	20.651529	9.842570	4.371427	33.851910	21.744339	-0.919438	-3.879725	50.752761	32.987281	-20.911038	-7.813558	60.934413	49.598100
-0.895000	-1.089067	-4.156866	93.821839	-0.009350	-0.265234	-0.002712	89.338118	0.382526	-2.130081	24.449391	3.144048	-17.933822	-28.783660	20.023710	5.903126	30.837997	20.623314	9.849850	4.378132	33.837812	21.713901	-0.936446	-3.877487	50.759577	32.985801	-20.917422	-7.823742	60.904495	49.585671
-0.885000	-1.089067	-4.156866	93.821839	-0.009375	-0.265235	-0.002684	89.368378	0.382514	-2.129314	24.465999	3.091336	-17.945752	-28.809757	20.004110	5.914226	30.835257	20.592741	9.865397	4.392925	33.811406	21.676088	-0.954152	-3.879048	50.755988	32.979072	-20.913267	-7.831685	60.847915	49.570762
-0.875000	-1.089067	-4.156866	93.821839	-0.009406	-0.265250	-0.002648	89.397116	0.380244	-2.134381	24.476497	3.037925	-17.955534	-28.826342	19.990782	5.925165	30.820663	20.564327	9.890580	4.413757	33.772604	21.636329	-0.969767	-3.883591	50.739998	32.968096	-20.907291	-7.838468	60.776927	49.560427
-0.865000	-1.089067	-4.156866	93.821839	-0.009437	-0.265276	-0.002613	89.417988	0.376880	-2.144292	24.478730	2.995554	-17.965205	-28.826938	19.985895	5.932728	30.797339	20.543262	9.924305	4.436301	33.725141	21.602249	-0.981541	-3.890761	50.713207	32.955320	-20.906527	-7.843318	60.710540	49.560422
-0.855000	-1.089067	-4.156866	93.821839	-0.009461	-0.265307	-0.002585	89.427429	0.374224	-2.157063	24.472057	2.972637	-17.976982	-28.811606	19.989025	5.933764	30.771918	20.533298	9.962123	4.455407	33.676884	21.580847	-0.988640	-3.900595	50.680915	32.943550	-20.912534	-7.844434	60.666743	49.571944
-0.845000	-1.089067	-4.156866	93.821839	-0.009474	-0.265337	-0.002568	89.426744	0.373809	-2.170467	24.459548	2.970731	-17.992007	-28.787556	19.997775	5.927168	30.752486	20.535708	9.996866	4.467162	33.638415	21.576066	-0.991211	-3.912968	50.651246	32.935071	-20.921669	-7.840768	60.655812	49.590889
-0.835000	-1.089067	-4.156866	93.821839	-0.009472	-0.265362	-0.002562	89.421504	0.376010	-2.182937	24.449121	2.985039	-18.009461	-28.767044	20.009225	5.915350	30.746544	20.549586	10.021072	4.470482	33.620455	21.587785	-0.990457	-3.927205	50.633827	32.931197	-20.928892	-7.833410	60.679024	49.610398
-0.825000	-1.089067	-4.156866	93.821839	-0.009457	-0.265377	-0.002567	89.418501	0.379790	-2.194248	24.451751	3.008131	-18.026151	-28.762519	20.021321	5.904188	30.759412	20.572712	10.030110	4.467427	33.631119	21.612304	-0.988469	-3.942311	50.638227	32.932113	-20.932297	-7.825610	60.732647	49.625363
-0.815000	-1.089067	-4.156866	93.821839	-0.009427	-0.265383	-0.002585	89.421952	0.383283	-2.205492	24.476470	3.034235	-18.036828	-28.780432	20.033176	5.901037	30.792963	20.602310	10.024232	4.462104	33.673729	21.643912	-0.987577	-3.957601	50.671791	32.936815	-20.935055	-7.821397	60.813138	49.635989
-0.805000	-1.089067	-4.156866	93.821839	-0.009384	-0.265382	-0.002619	89.431075	0.384814	-2.218047	24.524249	3.061655	-18.035512	-28.816587	20.044201	5.911361	30.844565	20.635641	10.008368	4.458696	33.745197	21.676914	-0.989202	-3.973008	50.736488	32.943017	-20.943210	-7.823732	60.919035	49.647493
-0.795000	-1.089067	-4.156866	93.821839	-0.009329	-0.265376	-0.002666	89.440285	0.383629	-2.231801	24.584202	3.092403	-18.017636	-28.855836	20.053375	5.935544	30.906162	20.670395	9.990077	4.459573	33.834750	21.707202	-0.992755	-3.988607	50.825447	32.947038	-20.960613	-7.833411	61.047497	49.665068
-0.785000	-1.089067	-4.156866	93.821839	-0.009266	-0.265364	-0.002712	89.441787	0.379839	-2.243585	24.634935	3.129896	-17.982187	-28.876839	20.060470	5.967851	30.963713	20.704285	9.977186	4.464360	33.923578	21.732605	-0.995386	-4.003642	50.921359	32.944153	-20.984004	-7.849449	61.186937	49.686656
-0.775000	-1.089067	-4.156866	93.821839	-0.009197	-0.265338	-0.002733	89.429096	0.373843	-2.247115	24.651719	3.176509	-17.932929	-28.860376	20.069389	5.998573	30.998025	20.733595	9.976488	4.470354	33.987271	21.752171	-0.992940	-4.015962	50.999330	32.930077	-21.000786	-7.870405	61.310791	49.698781
-0.765000	-1.089067	-4.156866	93.821839	-0.009131	-0.265290	-0.002697	89.399846	0.366100	-2.235276	24.617415	3.232303	-17.878209	-28.798415	20.090803	6.018554	30.988880	20.751824	9.993654	4.473992	34.002600	21.765460	-0.981125	-4.022601	51.034716	32.903490	-20.990392	-7.895008	61.379299	49.680045
-0.755000	-1.089067	-4.156866	93.821839	-0.009067	-0.265211	-0.002585	89.356761	0.357803	-2.204051	24.532093	3.294948	-17.829209	-28.700126	20.140276	6.023599	30.923092	20.750501	10.033409	4.472673	33.957160	21.772671	-0.955551	-4.021398	51.012917	32.868090	-20.928983	-7.921038	61.352730	49.611961
-0.745000	-1.089067	-4.156866	93.821839	-0.009001	-0.265099	-0.002393	89.306342	0.351926	-2.155619	24.414785	3.360319	-17.796624	-28.590284	20.230967	6.016053	30.803097	20.722879	10.098937	4.466195	33.856537	21.775156	-0.911054	-4.012571	50.935925	32.832147	-20.797019	-7.943648	61.210555	49.490484
-0.735000	-1.089067	-4.156866	93.821839	-0.008923	-0.264964	-0.002142	89.255596	0.353346	-2.098011	24.294125	3.423608	-17.786442	-28.498223	20.364847	6.002629	30.649636	20.668565	10.190245	4.457114	33.723246	21.775218	-0.842544	-3.999006	50.821698	32.804914	-20.588407	-7.955670	60.964250	49.329777
-0.725000	-1.089067	-4.156866	93.821839	-0.008818	-0.264815	-0.001863	89.208487	0.367422	-2.041167	24.192589	3.480945	-17.796898	-28.442581	20.528489	5.990098	30.494646	20.595685	10.302329	4.449656	33.586781	21.774976	-0.748379	-3.984825	50.696432	32.791621	-20.317523	-7.950895	60.654655	49.154994
-0.715000	-1.089067	-4.156866	93.821839	-0.008679	-0.264664	-0.001583	89.164736	0.397988	-1.992206	24.115213	3.530837	-17.819029	-28.422290	20.696850	5.981837	30.367631	20.518652	10.424521	4.447649	33.470836	21.775452	-0.633754	-3.973180	50.583835	32.790216	-20.018923	-7.928312	60.335893	48.989111
-0.705000	-1.089067	-4.156866	93.821839	-0.008503	-0.264515	-0.001312	89.122446	0.446319	-1.953170	24.050899	3.574118	-17.841157	-28.420564	20.843338	5.977337	30.283814	20.452501	10.542204	4.452708	33.385611	21.776950	-0.510418	-3.964817	50.496780	32.792168	-19.737305	-7.893975	60.056141	48.843103
-0.695000	-1.089067	-4.156866	93.821839	-0.008292	-0.264366	-0.001043	89.082670	0.511540	-1.922129	23.984001	3.612218	-17.854450	-28.417864	20.950781	5.974429	30.240652	20.406714	10.641073	4.463803	33.328456	21.780157	-0.391985	-3.958255	50.434749	32.787183	-19.511624	-7.858839	59.844442	48.715816
-0.685000	-1.089067	-4.156866	93.821839	-0.008053	-0.264209	-0.000764	89.051775	0.591474	-1.895961	23.905817	3.645444	-17.855684	-28.402674	21.017810	5.972245	30.223128	20.381466	10.712754	4.478328	33.289971	21.786274	-0.288088	-3.951131	50.387161	32.769227	-19.361813	-7.833804	59.706212	48.602622
-0.675000	-1.089067	-4.156866	93.821839	-0.007790	-0.264037	-0.000459	89.038990	0.682783	-1.872562	23.817237	3.673026	-17.845801	-28.372329	21.058049	5.972832	30.213114	20.368000	10.759091	4.493753	33.260490	21.795497	-0.201430	-3.941672	50.340376	32.740535	-19.284941	-7.825075	59.625828	48.505651
-0.665000	-1.089067	-4.156866	93.821839	-0.007505	-0.263849	-0.000123	89.050759	0.780410	-1.851247	23.722876	3.694544	-17.826356	-28.326121	21.093196	5.980628	30.197029	20.353094	10.792216	4.508780	33.233900	21.805382	-0.129136	-3.929527	50.285169	32.711574	-19.261434	-7.832542	59.574544	48.437310
-0.655000	-1.089067	-4.156866	93.821839	-0.007199	-0.263648	0.000241	89.086067	0.877268	-1.831491	23.623930	3.710946	-17.797197	-28.259196	21.143719	6.000281	30.168511	20.325841	10.829470	4.523475	33.208401	21.811405	-0.066386	-3.915911	50.221157	32.697009	-19.266303	-7.851771	59.522487	48.413562
-0.645000	-1.089067	-4.156866	93.821839	-0.006872	-0.263446	0.000626	89.135695	0.964949	-1.811056	23.516226	3.724517	-17.756920	-28.163204	21.221413	6.033964	30.126431	20.283600	10.885627	4.538568	33.184897	21.810261	-0.008910	-3.903375	50.155443	32.709569	-19.278799	-7.877717	59.451774	48.440842
